<?xml version="1.0" encoding="UTF-8"?>
<!-- Created with Inkscape (http://www.inkscape.org/) -->
<svg width="512" height="512" version="1.1" viewBox="0 0 135.47 135.47" xmlns="http://www.w3.org/2000/svg">
 <circle cx="67.733" cy="67.733" r="67.733" fill="#fff" stroke-width="1.0584"/>
 <path d="m73.315 90.455c-3.0343-2.5258-5.6516-5.4437-9.0136-7.5678-5.6893-3.5944-13.571-6.244-20.395-5.2573-6.8865 0.99572-9.2093 6.7591-9.4484 13.014-0.1157 3.0264-0.0014 5.1283 1.864 7.5965 6.7519 8.9339 15.776 4.5752 24.761 1.9948 4.1586-1.1943 8.0012-2.7326 11.643-5.0654 1.2291-0.78741 3.0709-1.7544 3.7922-3.1133 0.31561-0.59462-0.59532-2.4785-0.73715-2.9888-0.7677-2.7623-0.93491-2.7563-1.158-5.9234-0.298-4.2302-0.02522-8.3122 0.19223-12.525 0.23002-4.4566 0.14978-9.0292 0.89985-13.45 0.36469-2.1492 1.0614-4.2041 1.4141-6.3512 0.26181-1.5942 0-3.4774 0-5.091 0-1.0391-0.36223-1.9618-0.44993-2.9813-0.24485-2.8463 0-5.8004 0-8.6571v-3.8919-1.359-0.64496c0 0.46141-0.0076-0.20843 0.1863 1.03 0.90048 5.7499 1.6628 6.3169 6.2942 10.976 1.9057 1.9169 8.1061 7.6019 10.324 9.4286 4.1506 3.4183 9.3925 5.4761 10.822 11.148 1.0666 4.2316-0.27824 10.212-5.4346 10.212" fill="none" stroke="#000" stroke-linecap="round" stroke-linejoin="round" stroke-width="7.9377"/>
</svg>
